G04 #@! TF.GenerationSoftware,KiCad,Pcbnew,(5.1.5-0-10_14)*
G04 #@! TF.CreationDate,2020-01-10T14:29:01+09:00*
G04 #@! TF.ProjectId,Zigbee2MQTT,5a696762-6565-4324-9d51-54542e6b6963,rev?*
G04 #@! TF.SameCoordinates,Original*
G04 #@! TF.FileFunction,Copper,L2,Bot*
G04 #@! TF.FilePolarity,Positive*
%FSLAX46Y46*%
G04 Gerber Fmt 4.6, Leading zero omitted, Abs format (unit mm)*
G04 Created by KiCad (PCBNEW (5.1.5-0-10_14)) date 2020-01-10 14:29:01*
%MOMM*%
%LPD*%
G04 APERTURE LIST*
%ADD10O,1.400000X1.400000*%
%ADD11C,1.400000*%
%ADD12C,1.800000*%
%ADD13R,1.800000X1.800000*%
%ADD14O,1.700000X1.700000*%
%ADD15R,1.700000X1.700000*%
%ADD16C,0.250000*%
G04 APERTURE END LIST*
D10*
X142875000Y-73660000D03*
D11*
X142875000Y-68580000D03*
D10*
X138430000Y-73660000D03*
D11*
X138430000Y-68580000D03*
D12*
X148590000Y-67945000D03*
D13*
X148590000Y-65405000D03*
D12*
X132715000Y-67945000D03*
D13*
X132715000Y-65405000D03*
D14*
X151130000Y-96520000D03*
X148590000Y-96520000D03*
X151130000Y-93980000D03*
X148590000Y-93980000D03*
X151130000Y-91440000D03*
X148590000Y-91440000D03*
X151130000Y-88900000D03*
X148590000Y-88900000D03*
X151130000Y-86360000D03*
X148590000Y-86360000D03*
X151130000Y-83820000D03*
D15*
X148590000Y-83820000D03*
D14*
X154305000Y-73660000D03*
X154305000Y-76200000D03*
X154305000Y-78740000D03*
X154305000Y-81280000D03*
X154305000Y-83820000D03*
X154305000Y-86360000D03*
X154305000Y-88900000D03*
X154305000Y-91440000D03*
X154305000Y-93980000D03*
X154305000Y-96520000D03*
X154305000Y-99060000D03*
X154305000Y-101600000D03*
X154305000Y-104140000D03*
X154305000Y-106680000D03*
D15*
X154305000Y-109220000D03*
D14*
X135890000Y-114300000D03*
X138430000Y-114300000D03*
X140970000Y-114300000D03*
X143510000Y-114300000D03*
D15*
X146050000Y-114300000D03*
D14*
X132080000Y-96520000D03*
X129540000Y-96520000D03*
X132080000Y-93980000D03*
X129540000Y-93980000D03*
X132080000Y-91440000D03*
X129540000Y-91440000D03*
X132080000Y-88900000D03*
X129540000Y-88900000D03*
X132080000Y-86360000D03*
X129540000Y-86360000D03*
X132080000Y-83820000D03*
X129540000Y-83820000D03*
X132080000Y-81280000D03*
D15*
X129540000Y-81280000D03*
D14*
X126365000Y-73660000D03*
X126365000Y-76200000D03*
X126365000Y-78740000D03*
X126365000Y-81280000D03*
X126365000Y-83820000D03*
X126365000Y-86360000D03*
X126365000Y-88900000D03*
X126365000Y-91440000D03*
X126365000Y-93980000D03*
X126365000Y-96520000D03*
X126365000Y-99060000D03*
X126365000Y-101600000D03*
X126365000Y-104140000D03*
X126365000Y-106680000D03*
D15*
X126365000Y-109220000D03*
D16*
X155154999Y-82970001D02*
X154305000Y-83820000D01*
X155480001Y-75635999D02*
X155480001Y-82644999D01*
X144239999Y-75024999D02*
X154869001Y-75024999D01*
X155480001Y-82644999D02*
X155154999Y-82970001D01*
X154869001Y-75024999D02*
X155480001Y-75635999D01*
X142875000Y-73660000D02*
X144239999Y-75024999D01*
X153279999Y-72634999D02*
X153455001Y-72810001D01*
X140444950Y-72634999D02*
X153279999Y-72634999D01*
X153455001Y-72810001D02*
X154305000Y-73660000D01*
X139419949Y-73660000D02*
X140444950Y-72634999D01*
X138430000Y-73660000D02*
X139419949Y-73660000D01*
X153102919Y-78740000D02*
X154305000Y-78740000D01*
X138362081Y-78740000D02*
X153102919Y-78740000D01*
X133282081Y-83820000D02*
X138362081Y-78740000D01*
X132080000Y-83820000D02*
X133282081Y-83820000D01*
X137580001Y-113450001D02*
X138430000Y-114300000D01*
X128364999Y-104234999D02*
X137580001Y-113450001D01*
X128364999Y-85795999D02*
X128364999Y-104234999D01*
X128975999Y-85184999D02*
X128364999Y-85795999D01*
X130715001Y-85184999D02*
X128975999Y-85184999D01*
X132080000Y-83820000D02*
X130715001Y-85184999D01*
X129540000Y-81280000D02*
X129540000Y-80479002D01*
X155154999Y-107529999D02*
X154305000Y-106680000D01*
X155480001Y-107855001D02*
X155154999Y-107529999D01*
X155480001Y-110330001D02*
X155480001Y-107855001D01*
X144685001Y-115475001D02*
X150335001Y-115475001D01*
X150335001Y-115475001D02*
X155480001Y-110330001D01*
X143510000Y-114300000D02*
X144685001Y-115475001D01*
X154305000Y-105879002D02*
X156210000Y-103974002D01*
X154305000Y-106680000D02*
X154305000Y-105879002D01*
X156210000Y-90805000D02*
X154305000Y-88900000D01*
X156210000Y-103974002D02*
X156210000Y-90805000D01*
X129540000Y-80180000D02*
X129540000Y-81280000D01*
X126365000Y-76200000D02*
X126365000Y-77000998D01*
X125515001Y-97369999D02*
X126365000Y-96520000D01*
X125189999Y-105504999D02*
X125189999Y-97695001D01*
X125189999Y-97695001D02*
X125515001Y-97369999D01*
X126365000Y-106680000D02*
X125189999Y-105504999D01*
X127540001Y-82179999D02*
X128440000Y-81280000D01*
X127540001Y-95344999D02*
X127540001Y-82179999D01*
X128440000Y-81280000D02*
X129540000Y-81280000D01*
X126365000Y-96520000D02*
X127540001Y-95344999D01*
X129540000Y-79375000D02*
X126365000Y-76200000D01*
X129540000Y-81280000D02*
X129540000Y-79375000D01*
X150755997Y-87724999D02*
X153129999Y-87724999D01*
X149954999Y-86924001D02*
X150755997Y-87724999D01*
X149954999Y-84084999D02*
X149954999Y-86924001D01*
X153129999Y-87724999D02*
X153455001Y-88050001D01*
X149690000Y-83820000D02*
X149954999Y-84084999D01*
X153455001Y-88050001D02*
X154305000Y-88900000D01*
X148590000Y-83820000D02*
X149690000Y-83820000D01*
X141605000Y-116205000D02*
X143510000Y-114300000D01*
X136055998Y-116205000D02*
X141605000Y-116205000D01*
X134620000Y-114769002D02*
X136055998Y-116205000D01*
X134620000Y-111760000D02*
X134620000Y-114769002D01*
X129540000Y-106680000D02*
X134620000Y-111760000D01*
X126365000Y-106680000D02*
X129540000Y-106680000D01*
X129540000Y-86360000D02*
X129540000Y-86995000D01*
X153455001Y-94829999D02*
X154305000Y-93980000D01*
X153129999Y-98495999D02*
X153129999Y-95155001D01*
X153129999Y-95155001D02*
X153455001Y-94829999D01*
X140970000Y-110655998D02*
X153129999Y-98495999D01*
X140970000Y-114300000D02*
X140970000Y-110655998D01*
X140120001Y-113450001D02*
X140970000Y-114300000D01*
X130904999Y-104234999D02*
X140120001Y-113450001D01*
X130904999Y-87724999D02*
X130904999Y-104234999D01*
X129540000Y-86360000D02*
X130904999Y-87724999D01*
X131565000Y-65405000D02*
X132715000Y-65405000D01*
X127540001Y-69429999D02*
X131565000Y-65405000D01*
X127540001Y-75024999D02*
X127540001Y-69429999D01*
X126365000Y-76200000D02*
X127540001Y-75024999D01*
X132715000Y-65405000D02*
X148590000Y-65405000D01*
X137795000Y-67945000D02*
X138430000Y-68580000D01*
X132715000Y-67945000D02*
X137795000Y-67945000D01*
X147955000Y-68580000D02*
X148590000Y-67945000D01*
X142875000Y-68580000D02*
X147955000Y-68580000D01*
M02*
