G04 #@! TF.GenerationSoftware,KiCad,Pcbnew,(5.1.5-0-10_14)*
G04 #@! TF.CreationDate,2020-01-10T14:29:01+09:00*
G04 #@! TF.ProjectId,Zigbee2MQTT,5a696762-6565-4324-9d51-54542e6b6963,rev?*
G04 #@! TF.SameCoordinates,Original*
G04 #@! TF.FileFunction,Copper,L1,Top*
G04 #@! TF.FilePolarity,Positive*
%FSLAX46Y46*%
G04 Gerber Fmt 4.6, Leading zero omitted, Abs format (unit mm)*
G04 Created by KiCad (PCBNEW (5.1.5-0-10_14)) date 2020-01-10 14:29:01*
%MOMM*%
%LPD*%
G04 APERTURE LIST*
%ADD10O,1.400000X1.400000*%
%ADD11C,1.400000*%
%ADD12C,1.800000*%
%ADD13R,1.800000X1.800000*%
%ADD14O,1.700000X1.700000*%
%ADD15R,1.700000X1.700000*%
%ADD16C,0.250000*%
G04 APERTURE END LIST*
D10*
X142875000Y-73660000D03*
D11*
X142875000Y-68580000D03*
D10*
X138430000Y-73660000D03*
D11*
X138430000Y-68580000D03*
D12*
X148590000Y-67945000D03*
D13*
X148590000Y-65405000D03*
D12*
X132715000Y-67945000D03*
D13*
X132715000Y-65405000D03*
D14*
X151130000Y-96520000D03*
X148590000Y-96520000D03*
X151130000Y-93980000D03*
X148590000Y-93980000D03*
X151130000Y-91440000D03*
X148590000Y-91440000D03*
X151130000Y-88900000D03*
X148590000Y-88900000D03*
X151130000Y-86360000D03*
X148590000Y-86360000D03*
X151130000Y-83820000D03*
D15*
X148590000Y-83820000D03*
D14*
X154305000Y-73660000D03*
X154305000Y-76200000D03*
X154305000Y-78740000D03*
X154305000Y-81280000D03*
X154305000Y-83820000D03*
X154305000Y-86360000D03*
X154305000Y-88900000D03*
X154305000Y-91440000D03*
X154305000Y-93980000D03*
X154305000Y-96520000D03*
X154305000Y-99060000D03*
X154305000Y-101600000D03*
X154305000Y-104140000D03*
X154305000Y-106680000D03*
D15*
X154305000Y-109220000D03*
D14*
X135890000Y-114300000D03*
X138430000Y-114300000D03*
X140970000Y-114300000D03*
X143510000Y-114300000D03*
D15*
X146050000Y-114300000D03*
D14*
X132080000Y-96520000D03*
X129540000Y-96520000D03*
X132080000Y-93980000D03*
X129540000Y-93980000D03*
X132080000Y-91440000D03*
X129540000Y-91440000D03*
X132080000Y-88900000D03*
X129540000Y-88900000D03*
X132080000Y-86360000D03*
X129540000Y-86360000D03*
X132080000Y-83820000D03*
X129540000Y-83820000D03*
X132080000Y-81280000D03*
D15*
X129540000Y-81280000D03*
D14*
X126365000Y-73660000D03*
X126365000Y-76200000D03*
X126365000Y-78740000D03*
X126365000Y-81280000D03*
X126365000Y-83820000D03*
X126365000Y-86360000D03*
X126365000Y-88900000D03*
X126365000Y-91440000D03*
X126365000Y-93980000D03*
X126365000Y-96520000D03*
X126365000Y-99060000D03*
X126365000Y-101600000D03*
X126365000Y-104140000D03*
X126365000Y-106680000D03*
D15*
X126365000Y-109220000D03*
D16*
X153455001Y-95670001D02*
X154305000Y-96520000D01*
X153129999Y-94240997D02*
X153129999Y-95344999D01*
X153129999Y-95344999D02*
X153455001Y-95670001D01*
X151130000Y-92240998D02*
X153129999Y-94240997D01*
X151130000Y-91440000D02*
X151130000Y-92240998D01*
X153102919Y-99060000D02*
X154305000Y-99060000D01*
X151930998Y-99060000D02*
X153102919Y-99060000D01*
X149954999Y-97084001D02*
X151930998Y-99060000D01*
X149954999Y-93605997D02*
X149954999Y-97084001D01*
X148590000Y-92240998D02*
X149954999Y-93605997D01*
X148590000Y-91440000D02*
X148590000Y-92240998D01*
X149765001Y-85184999D02*
X149439999Y-85510001D01*
X149439999Y-85510001D02*
X148590000Y-86360000D01*
X149765001Y-81540997D02*
X149765001Y-85184999D01*
X154305000Y-77000998D02*
X149765001Y-81540997D01*
X154305000Y-76200000D02*
X154305000Y-77000998D01*
X135890000Y-99060000D02*
X135890000Y-114300000D01*
X148590000Y-86360000D02*
X135890000Y-99060000D01*
X154940000Y-109050000D02*
X154770000Y-109220000D01*
X154770000Y-109220000D02*
X153670000Y-109220000D01*
X153670000Y-109220000D02*
X154940000Y-109220000D01*
X151130000Y-83820000D02*
X151130000Y-86360000D01*
X151130000Y-86360000D02*
X154305000Y-86360000D01*
X155480001Y-109144999D02*
X155405000Y-109220000D01*
X155480001Y-87535001D02*
X155480001Y-109144999D01*
X155405000Y-109220000D02*
X154305000Y-109220000D01*
X154305000Y-86360000D02*
X155480001Y-87535001D01*
X146050000Y-113200000D02*
X146050000Y-114300000D01*
X150030000Y-109220000D02*
X146050000Y-113200000D01*
X154305000Y-109220000D02*
X150030000Y-109220000D01*
X146050000Y-115400000D02*
X145974999Y-115475001D01*
X126365000Y-99060000D02*
X134620000Y-107315000D01*
X134620000Y-114769002D02*
X136055998Y-116205000D01*
X134620000Y-107315000D02*
X134620000Y-114769002D01*
X146050000Y-115400000D02*
X146050000Y-114300000D01*
X145245000Y-116205000D02*
X146050000Y-115400000D01*
X136055998Y-116205000D02*
X145245000Y-116205000D01*
M02*
