M48
METRIC,TZ
T1C1.000
%
G90
G05
T1
X129540Y-81280
X129540Y-83820
X129540Y-86360
X129540Y-88900
X129540Y-91440
X129540Y-93980
X129540Y-96520
X132080Y-81280
X132080Y-83820
X132080Y-86360
X132080Y-88900
X132080Y-91440
X132080Y-93980
X132080Y-96520
X154305Y-73660
X154305Y-76200
X154305Y-78740
X154305Y-81280
X154305Y-83820
X154305Y-86360
X154305Y-88900
X154305Y-91440
X154305Y-93980
X154305Y-96520
X154305Y-99060
X154305Y-101600
X154305Y-104140
X154305Y-106680
X154305Y-109220
X126365Y-73660
X126365Y-76200
X126365Y-78740
X126365Y-81280
X126365Y-83820
X126365Y-86360
X126365Y-88900
X126365Y-91440
X126365Y-93980
X126365Y-96520
X126365Y-99060
X126365Y-101600
X126365Y-104140
X126365Y-106680
X126365Y-109220
X135890Y-114300
X138430Y-114300
X140970Y-114300
X143510Y-114300
X146050Y-114300
X148590Y-83820
X148590Y-86360
X148590Y-88900
X148590Y-91440
X148590Y-93980
X148590Y-96520
X151130Y-83820
X151130Y-86360
X151130Y-88900
X151130Y-91440
X151130Y-93980
X151130Y-96520
T0
M30
