G04 #@! TF.GenerationSoftware,KiCad,Pcbnew,(5.1.5-0-10_14)*
G04 #@! TF.CreationDate,2020-01-09T22:03:08+09:00*
G04 #@! TF.ProjectId,Zigbee2MQTT,5a696762-6565-4324-9d51-54542e6b6963,rev?*
G04 #@! TF.SameCoordinates,Original*
G04 #@! TF.FileFunction,Soldermask,Bot*
G04 #@! TF.FilePolarity,Negative*
%FSLAX46Y46*%
G04 Gerber Fmt 4.6, Leading zero omitted, Abs format (unit mm)*
G04 Created by KiCad (PCBNEW (5.1.5-0-10_14)) date 2020-01-09 22:03:08*
%MOMM*%
%LPD*%
G04 APERTURE LIST*
%ADD10C,0.100000*%
G04 APERTURE END LIST*
D10*
G36*
X146951000Y-115201000D02*
G01*
X145149000Y-115201000D01*
X145149000Y-113399000D01*
X146951000Y-113399000D01*
X146951000Y-115201000D01*
G37*
G36*
X143623512Y-113403927D02*
G01*
X143772812Y-113433624D01*
X143936784Y-113501544D01*
X144084354Y-113600147D01*
X144209853Y-113725646D01*
X144308456Y-113873216D01*
X144376376Y-114037188D01*
X144411000Y-114211259D01*
X144411000Y-114388741D01*
X144376376Y-114562812D01*
X144308456Y-114726784D01*
X144209853Y-114874354D01*
X144084354Y-114999853D01*
X143936784Y-115098456D01*
X143772812Y-115166376D01*
X143623512Y-115196073D01*
X143598742Y-115201000D01*
X143421258Y-115201000D01*
X143396488Y-115196073D01*
X143247188Y-115166376D01*
X143083216Y-115098456D01*
X142935646Y-114999853D01*
X142810147Y-114874354D01*
X142711544Y-114726784D01*
X142643624Y-114562812D01*
X142609000Y-114388741D01*
X142609000Y-114211259D01*
X142643624Y-114037188D01*
X142711544Y-113873216D01*
X142810147Y-113725646D01*
X142935646Y-113600147D01*
X143083216Y-113501544D01*
X143247188Y-113433624D01*
X143396488Y-113403927D01*
X143421258Y-113399000D01*
X143598742Y-113399000D01*
X143623512Y-113403927D01*
G37*
G36*
X141083512Y-113403927D02*
G01*
X141232812Y-113433624D01*
X141396784Y-113501544D01*
X141544354Y-113600147D01*
X141669853Y-113725646D01*
X141768456Y-113873216D01*
X141836376Y-114037188D01*
X141871000Y-114211259D01*
X141871000Y-114388741D01*
X141836376Y-114562812D01*
X141768456Y-114726784D01*
X141669853Y-114874354D01*
X141544354Y-114999853D01*
X141396784Y-115098456D01*
X141232812Y-115166376D01*
X141083512Y-115196073D01*
X141058742Y-115201000D01*
X140881258Y-115201000D01*
X140856488Y-115196073D01*
X140707188Y-115166376D01*
X140543216Y-115098456D01*
X140395646Y-114999853D01*
X140270147Y-114874354D01*
X140171544Y-114726784D01*
X140103624Y-114562812D01*
X140069000Y-114388741D01*
X140069000Y-114211259D01*
X140103624Y-114037188D01*
X140171544Y-113873216D01*
X140270147Y-113725646D01*
X140395646Y-113600147D01*
X140543216Y-113501544D01*
X140707188Y-113433624D01*
X140856488Y-113403927D01*
X140881258Y-113399000D01*
X141058742Y-113399000D01*
X141083512Y-113403927D01*
G37*
G36*
X138543512Y-113403927D02*
G01*
X138692812Y-113433624D01*
X138856784Y-113501544D01*
X139004354Y-113600147D01*
X139129853Y-113725646D01*
X139228456Y-113873216D01*
X139296376Y-114037188D01*
X139331000Y-114211259D01*
X139331000Y-114388741D01*
X139296376Y-114562812D01*
X139228456Y-114726784D01*
X139129853Y-114874354D01*
X139004354Y-114999853D01*
X138856784Y-115098456D01*
X138692812Y-115166376D01*
X138543512Y-115196073D01*
X138518742Y-115201000D01*
X138341258Y-115201000D01*
X138316488Y-115196073D01*
X138167188Y-115166376D01*
X138003216Y-115098456D01*
X137855646Y-114999853D01*
X137730147Y-114874354D01*
X137631544Y-114726784D01*
X137563624Y-114562812D01*
X137529000Y-114388741D01*
X137529000Y-114211259D01*
X137563624Y-114037188D01*
X137631544Y-113873216D01*
X137730147Y-113725646D01*
X137855646Y-113600147D01*
X138003216Y-113501544D01*
X138167188Y-113433624D01*
X138316488Y-113403927D01*
X138341258Y-113399000D01*
X138518742Y-113399000D01*
X138543512Y-113403927D01*
G37*
G36*
X136003512Y-113403927D02*
G01*
X136152812Y-113433624D01*
X136316784Y-113501544D01*
X136464354Y-113600147D01*
X136589853Y-113725646D01*
X136688456Y-113873216D01*
X136756376Y-114037188D01*
X136791000Y-114211259D01*
X136791000Y-114388741D01*
X136756376Y-114562812D01*
X136688456Y-114726784D01*
X136589853Y-114874354D01*
X136464354Y-114999853D01*
X136316784Y-115098456D01*
X136152812Y-115166376D01*
X136003512Y-115196073D01*
X135978742Y-115201000D01*
X135801258Y-115201000D01*
X135776488Y-115196073D01*
X135627188Y-115166376D01*
X135463216Y-115098456D01*
X135315646Y-114999853D01*
X135190147Y-114874354D01*
X135091544Y-114726784D01*
X135023624Y-114562812D01*
X134989000Y-114388741D01*
X134989000Y-114211259D01*
X135023624Y-114037188D01*
X135091544Y-113873216D01*
X135190147Y-113725646D01*
X135315646Y-113600147D01*
X135463216Y-113501544D01*
X135627188Y-113433624D01*
X135776488Y-113403927D01*
X135801258Y-113399000D01*
X135978742Y-113399000D01*
X136003512Y-113403927D01*
G37*
G36*
X127266000Y-110121000D02*
G01*
X125464000Y-110121000D01*
X125464000Y-108319000D01*
X127266000Y-108319000D01*
X127266000Y-110121000D01*
G37*
G36*
X155206000Y-110121000D02*
G01*
X153404000Y-110121000D01*
X153404000Y-108319000D01*
X155206000Y-108319000D01*
X155206000Y-110121000D01*
G37*
G36*
X126478512Y-105783927D02*
G01*
X126627812Y-105813624D01*
X126791784Y-105881544D01*
X126939354Y-105980147D01*
X127064853Y-106105646D01*
X127163456Y-106253216D01*
X127231376Y-106417188D01*
X127266000Y-106591259D01*
X127266000Y-106768741D01*
X127231376Y-106942812D01*
X127163456Y-107106784D01*
X127064853Y-107254354D01*
X126939354Y-107379853D01*
X126791784Y-107478456D01*
X126627812Y-107546376D01*
X126478512Y-107576073D01*
X126453742Y-107581000D01*
X126276258Y-107581000D01*
X126251488Y-107576073D01*
X126102188Y-107546376D01*
X125938216Y-107478456D01*
X125790646Y-107379853D01*
X125665147Y-107254354D01*
X125566544Y-107106784D01*
X125498624Y-106942812D01*
X125464000Y-106768741D01*
X125464000Y-106591259D01*
X125498624Y-106417188D01*
X125566544Y-106253216D01*
X125665147Y-106105646D01*
X125790646Y-105980147D01*
X125938216Y-105881544D01*
X126102188Y-105813624D01*
X126251488Y-105783927D01*
X126276258Y-105779000D01*
X126453742Y-105779000D01*
X126478512Y-105783927D01*
G37*
G36*
X154418512Y-105783927D02*
G01*
X154567812Y-105813624D01*
X154731784Y-105881544D01*
X154879354Y-105980147D01*
X155004853Y-106105646D01*
X155103456Y-106253216D01*
X155171376Y-106417188D01*
X155206000Y-106591259D01*
X155206000Y-106768741D01*
X155171376Y-106942812D01*
X155103456Y-107106784D01*
X155004853Y-107254354D01*
X154879354Y-107379853D01*
X154731784Y-107478456D01*
X154567812Y-107546376D01*
X154418512Y-107576073D01*
X154393742Y-107581000D01*
X154216258Y-107581000D01*
X154191488Y-107576073D01*
X154042188Y-107546376D01*
X153878216Y-107478456D01*
X153730646Y-107379853D01*
X153605147Y-107254354D01*
X153506544Y-107106784D01*
X153438624Y-106942812D01*
X153404000Y-106768741D01*
X153404000Y-106591259D01*
X153438624Y-106417188D01*
X153506544Y-106253216D01*
X153605147Y-106105646D01*
X153730646Y-105980147D01*
X153878216Y-105881544D01*
X154042188Y-105813624D01*
X154191488Y-105783927D01*
X154216258Y-105779000D01*
X154393742Y-105779000D01*
X154418512Y-105783927D01*
G37*
G36*
X126478512Y-103243927D02*
G01*
X126627812Y-103273624D01*
X126791784Y-103341544D01*
X126939354Y-103440147D01*
X127064853Y-103565646D01*
X127163456Y-103713216D01*
X127231376Y-103877188D01*
X127266000Y-104051259D01*
X127266000Y-104228741D01*
X127231376Y-104402812D01*
X127163456Y-104566784D01*
X127064853Y-104714354D01*
X126939354Y-104839853D01*
X126791784Y-104938456D01*
X126627812Y-105006376D01*
X126478512Y-105036073D01*
X126453742Y-105041000D01*
X126276258Y-105041000D01*
X126251488Y-105036073D01*
X126102188Y-105006376D01*
X125938216Y-104938456D01*
X125790646Y-104839853D01*
X125665147Y-104714354D01*
X125566544Y-104566784D01*
X125498624Y-104402812D01*
X125464000Y-104228741D01*
X125464000Y-104051259D01*
X125498624Y-103877188D01*
X125566544Y-103713216D01*
X125665147Y-103565646D01*
X125790646Y-103440147D01*
X125938216Y-103341544D01*
X126102188Y-103273624D01*
X126251488Y-103243927D01*
X126276258Y-103239000D01*
X126453742Y-103239000D01*
X126478512Y-103243927D01*
G37*
G36*
X154418512Y-103243927D02*
G01*
X154567812Y-103273624D01*
X154731784Y-103341544D01*
X154879354Y-103440147D01*
X155004853Y-103565646D01*
X155103456Y-103713216D01*
X155171376Y-103877188D01*
X155206000Y-104051259D01*
X155206000Y-104228741D01*
X155171376Y-104402812D01*
X155103456Y-104566784D01*
X155004853Y-104714354D01*
X154879354Y-104839853D01*
X154731784Y-104938456D01*
X154567812Y-105006376D01*
X154418512Y-105036073D01*
X154393742Y-105041000D01*
X154216258Y-105041000D01*
X154191488Y-105036073D01*
X154042188Y-105006376D01*
X153878216Y-104938456D01*
X153730646Y-104839853D01*
X153605147Y-104714354D01*
X153506544Y-104566784D01*
X153438624Y-104402812D01*
X153404000Y-104228741D01*
X153404000Y-104051259D01*
X153438624Y-103877188D01*
X153506544Y-103713216D01*
X153605147Y-103565646D01*
X153730646Y-103440147D01*
X153878216Y-103341544D01*
X154042188Y-103273624D01*
X154191488Y-103243927D01*
X154216258Y-103239000D01*
X154393742Y-103239000D01*
X154418512Y-103243927D01*
G37*
G36*
X154418512Y-100703927D02*
G01*
X154567812Y-100733624D01*
X154731784Y-100801544D01*
X154879354Y-100900147D01*
X155004853Y-101025646D01*
X155103456Y-101173216D01*
X155171376Y-101337188D01*
X155206000Y-101511259D01*
X155206000Y-101688741D01*
X155171376Y-101862812D01*
X155103456Y-102026784D01*
X155004853Y-102174354D01*
X154879354Y-102299853D01*
X154731784Y-102398456D01*
X154567812Y-102466376D01*
X154418512Y-102496073D01*
X154393742Y-102501000D01*
X154216258Y-102501000D01*
X154191488Y-102496073D01*
X154042188Y-102466376D01*
X153878216Y-102398456D01*
X153730646Y-102299853D01*
X153605147Y-102174354D01*
X153506544Y-102026784D01*
X153438624Y-101862812D01*
X153404000Y-101688741D01*
X153404000Y-101511259D01*
X153438624Y-101337188D01*
X153506544Y-101173216D01*
X153605147Y-101025646D01*
X153730646Y-100900147D01*
X153878216Y-100801544D01*
X154042188Y-100733624D01*
X154191488Y-100703927D01*
X154216258Y-100699000D01*
X154393742Y-100699000D01*
X154418512Y-100703927D01*
G37*
G36*
X126478512Y-100703927D02*
G01*
X126627812Y-100733624D01*
X126791784Y-100801544D01*
X126939354Y-100900147D01*
X127064853Y-101025646D01*
X127163456Y-101173216D01*
X127231376Y-101337188D01*
X127266000Y-101511259D01*
X127266000Y-101688741D01*
X127231376Y-101862812D01*
X127163456Y-102026784D01*
X127064853Y-102174354D01*
X126939354Y-102299853D01*
X126791784Y-102398456D01*
X126627812Y-102466376D01*
X126478512Y-102496073D01*
X126453742Y-102501000D01*
X126276258Y-102501000D01*
X126251488Y-102496073D01*
X126102188Y-102466376D01*
X125938216Y-102398456D01*
X125790646Y-102299853D01*
X125665147Y-102174354D01*
X125566544Y-102026784D01*
X125498624Y-101862812D01*
X125464000Y-101688741D01*
X125464000Y-101511259D01*
X125498624Y-101337188D01*
X125566544Y-101173216D01*
X125665147Y-101025646D01*
X125790646Y-100900147D01*
X125938216Y-100801544D01*
X126102188Y-100733624D01*
X126251488Y-100703927D01*
X126276258Y-100699000D01*
X126453742Y-100699000D01*
X126478512Y-100703927D01*
G37*
G36*
X154418512Y-98163927D02*
G01*
X154567812Y-98193624D01*
X154731784Y-98261544D01*
X154879354Y-98360147D01*
X155004853Y-98485646D01*
X155103456Y-98633216D01*
X155171376Y-98797188D01*
X155206000Y-98971259D01*
X155206000Y-99148741D01*
X155171376Y-99322812D01*
X155103456Y-99486784D01*
X155004853Y-99634354D01*
X154879354Y-99759853D01*
X154731784Y-99858456D01*
X154567812Y-99926376D01*
X154418512Y-99956073D01*
X154393742Y-99961000D01*
X154216258Y-99961000D01*
X154191488Y-99956073D01*
X154042188Y-99926376D01*
X153878216Y-99858456D01*
X153730646Y-99759853D01*
X153605147Y-99634354D01*
X153506544Y-99486784D01*
X153438624Y-99322812D01*
X153404000Y-99148741D01*
X153404000Y-98971259D01*
X153438624Y-98797188D01*
X153506544Y-98633216D01*
X153605147Y-98485646D01*
X153730646Y-98360147D01*
X153878216Y-98261544D01*
X154042188Y-98193624D01*
X154191488Y-98163927D01*
X154216258Y-98159000D01*
X154393742Y-98159000D01*
X154418512Y-98163927D01*
G37*
G36*
X126478512Y-98163927D02*
G01*
X126627812Y-98193624D01*
X126791784Y-98261544D01*
X126939354Y-98360147D01*
X127064853Y-98485646D01*
X127163456Y-98633216D01*
X127231376Y-98797188D01*
X127266000Y-98971259D01*
X127266000Y-99148741D01*
X127231376Y-99322812D01*
X127163456Y-99486784D01*
X127064853Y-99634354D01*
X126939354Y-99759853D01*
X126791784Y-99858456D01*
X126627812Y-99926376D01*
X126478512Y-99956073D01*
X126453742Y-99961000D01*
X126276258Y-99961000D01*
X126251488Y-99956073D01*
X126102188Y-99926376D01*
X125938216Y-99858456D01*
X125790646Y-99759853D01*
X125665147Y-99634354D01*
X125566544Y-99486784D01*
X125498624Y-99322812D01*
X125464000Y-99148741D01*
X125464000Y-98971259D01*
X125498624Y-98797188D01*
X125566544Y-98633216D01*
X125665147Y-98485646D01*
X125790646Y-98360147D01*
X125938216Y-98261544D01*
X126102188Y-98193624D01*
X126251488Y-98163927D01*
X126276258Y-98159000D01*
X126453742Y-98159000D01*
X126478512Y-98163927D01*
G37*
G36*
X151243512Y-95623927D02*
G01*
X151392812Y-95653624D01*
X151556784Y-95721544D01*
X151704354Y-95820147D01*
X151829853Y-95945646D01*
X151928456Y-96093216D01*
X151996376Y-96257188D01*
X152031000Y-96431259D01*
X152031000Y-96608741D01*
X151996376Y-96782812D01*
X151928456Y-96946784D01*
X151829853Y-97094354D01*
X151704354Y-97219853D01*
X151556784Y-97318456D01*
X151392812Y-97386376D01*
X151243512Y-97416073D01*
X151218742Y-97421000D01*
X151041258Y-97421000D01*
X151016488Y-97416073D01*
X150867188Y-97386376D01*
X150703216Y-97318456D01*
X150555646Y-97219853D01*
X150430147Y-97094354D01*
X150331544Y-96946784D01*
X150263624Y-96782812D01*
X150229000Y-96608741D01*
X150229000Y-96431259D01*
X150263624Y-96257188D01*
X150331544Y-96093216D01*
X150430147Y-95945646D01*
X150555646Y-95820147D01*
X150703216Y-95721544D01*
X150867188Y-95653624D01*
X151016488Y-95623927D01*
X151041258Y-95619000D01*
X151218742Y-95619000D01*
X151243512Y-95623927D01*
G37*
G36*
X154418512Y-95623927D02*
G01*
X154567812Y-95653624D01*
X154731784Y-95721544D01*
X154879354Y-95820147D01*
X155004853Y-95945646D01*
X155103456Y-96093216D01*
X155171376Y-96257188D01*
X155206000Y-96431259D01*
X155206000Y-96608741D01*
X155171376Y-96782812D01*
X155103456Y-96946784D01*
X155004853Y-97094354D01*
X154879354Y-97219853D01*
X154731784Y-97318456D01*
X154567812Y-97386376D01*
X154418512Y-97416073D01*
X154393742Y-97421000D01*
X154216258Y-97421000D01*
X154191488Y-97416073D01*
X154042188Y-97386376D01*
X153878216Y-97318456D01*
X153730646Y-97219853D01*
X153605147Y-97094354D01*
X153506544Y-96946784D01*
X153438624Y-96782812D01*
X153404000Y-96608741D01*
X153404000Y-96431259D01*
X153438624Y-96257188D01*
X153506544Y-96093216D01*
X153605147Y-95945646D01*
X153730646Y-95820147D01*
X153878216Y-95721544D01*
X154042188Y-95653624D01*
X154191488Y-95623927D01*
X154216258Y-95619000D01*
X154393742Y-95619000D01*
X154418512Y-95623927D01*
G37*
G36*
X148703512Y-95623927D02*
G01*
X148852812Y-95653624D01*
X149016784Y-95721544D01*
X149164354Y-95820147D01*
X149289853Y-95945646D01*
X149388456Y-96093216D01*
X149456376Y-96257188D01*
X149491000Y-96431259D01*
X149491000Y-96608741D01*
X149456376Y-96782812D01*
X149388456Y-96946784D01*
X149289853Y-97094354D01*
X149164354Y-97219853D01*
X149016784Y-97318456D01*
X148852812Y-97386376D01*
X148703512Y-97416073D01*
X148678742Y-97421000D01*
X148501258Y-97421000D01*
X148476488Y-97416073D01*
X148327188Y-97386376D01*
X148163216Y-97318456D01*
X148015646Y-97219853D01*
X147890147Y-97094354D01*
X147791544Y-96946784D01*
X147723624Y-96782812D01*
X147689000Y-96608741D01*
X147689000Y-96431259D01*
X147723624Y-96257188D01*
X147791544Y-96093216D01*
X147890147Y-95945646D01*
X148015646Y-95820147D01*
X148163216Y-95721544D01*
X148327188Y-95653624D01*
X148476488Y-95623927D01*
X148501258Y-95619000D01*
X148678742Y-95619000D01*
X148703512Y-95623927D01*
G37*
G36*
X132193512Y-95623927D02*
G01*
X132342812Y-95653624D01*
X132506784Y-95721544D01*
X132654354Y-95820147D01*
X132779853Y-95945646D01*
X132878456Y-96093216D01*
X132946376Y-96257188D01*
X132981000Y-96431259D01*
X132981000Y-96608741D01*
X132946376Y-96782812D01*
X132878456Y-96946784D01*
X132779853Y-97094354D01*
X132654354Y-97219853D01*
X132506784Y-97318456D01*
X132342812Y-97386376D01*
X132193512Y-97416073D01*
X132168742Y-97421000D01*
X131991258Y-97421000D01*
X131966488Y-97416073D01*
X131817188Y-97386376D01*
X131653216Y-97318456D01*
X131505646Y-97219853D01*
X131380147Y-97094354D01*
X131281544Y-96946784D01*
X131213624Y-96782812D01*
X131179000Y-96608741D01*
X131179000Y-96431259D01*
X131213624Y-96257188D01*
X131281544Y-96093216D01*
X131380147Y-95945646D01*
X131505646Y-95820147D01*
X131653216Y-95721544D01*
X131817188Y-95653624D01*
X131966488Y-95623927D01*
X131991258Y-95619000D01*
X132168742Y-95619000D01*
X132193512Y-95623927D01*
G37*
G36*
X126478512Y-95623927D02*
G01*
X126627812Y-95653624D01*
X126791784Y-95721544D01*
X126939354Y-95820147D01*
X127064853Y-95945646D01*
X127163456Y-96093216D01*
X127231376Y-96257188D01*
X127266000Y-96431259D01*
X127266000Y-96608741D01*
X127231376Y-96782812D01*
X127163456Y-96946784D01*
X127064853Y-97094354D01*
X126939354Y-97219853D01*
X126791784Y-97318456D01*
X126627812Y-97386376D01*
X126478512Y-97416073D01*
X126453742Y-97421000D01*
X126276258Y-97421000D01*
X126251488Y-97416073D01*
X126102188Y-97386376D01*
X125938216Y-97318456D01*
X125790646Y-97219853D01*
X125665147Y-97094354D01*
X125566544Y-96946784D01*
X125498624Y-96782812D01*
X125464000Y-96608741D01*
X125464000Y-96431259D01*
X125498624Y-96257188D01*
X125566544Y-96093216D01*
X125665147Y-95945646D01*
X125790646Y-95820147D01*
X125938216Y-95721544D01*
X126102188Y-95653624D01*
X126251488Y-95623927D01*
X126276258Y-95619000D01*
X126453742Y-95619000D01*
X126478512Y-95623927D01*
G37*
G36*
X129653512Y-95623927D02*
G01*
X129802812Y-95653624D01*
X129966784Y-95721544D01*
X130114354Y-95820147D01*
X130239853Y-95945646D01*
X130338456Y-96093216D01*
X130406376Y-96257188D01*
X130441000Y-96431259D01*
X130441000Y-96608741D01*
X130406376Y-96782812D01*
X130338456Y-96946784D01*
X130239853Y-97094354D01*
X130114354Y-97219853D01*
X129966784Y-97318456D01*
X129802812Y-97386376D01*
X129653512Y-97416073D01*
X129628742Y-97421000D01*
X129451258Y-97421000D01*
X129426488Y-97416073D01*
X129277188Y-97386376D01*
X129113216Y-97318456D01*
X128965646Y-97219853D01*
X128840147Y-97094354D01*
X128741544Y-96946784D01*
X128673624Y-96782812D01*
X128639000Y-96608741D01*
X128639000Y-96431259D01*
X128673624Y-96257188D01*
X128741544Y-96093216D01*
X128840147Y-95945646D01*
X128965646Y-95820147D01*
X129113216Y-95721544D01*
X129277188Y-95653624D01*
X129426488Y-95623927D01*
X129451258Y-95619000D01*
X129628742Y-95619000D01*
X129653512Y-95623927D01*
G37*
G36*
X126478512Y-93083927D02*
G01*
X126627812Y-93113624D01*
X126791784Y-93181544D01*
X126939354Y-93280147D01*
X127064853Y-93405646D01*
X127163456Y-93553216D01*
X127231376Y-93717188D01*
X127266000Y-93891259D01*
X127266000Y-94068741D01*
X127231376Y-94242812D01*
X127163456Y-94406784D01*
X127064853Y-94554354D01*
X126939354Y-94679853D01*
X126791784Y-94778456D01*
X126627812Y-94846376D01*
X126478512Y-94876073D01*
X126453742Y-94881000D01*
X126276258Y-94881000D01*
X126251488Y-94876073D01*
X126102188Y-94846376D01*
X125938216Y-94778456D01*
X125790646Y-94679853D01*
X125665147Y-94554354D01*
X125566544Y-94406784D01*
X125498624Y-94242812D01*
X125464000Y-94068741D01*
X125464000Y-93891259D01*
X125498624Y-93717188D01*
X125566544Y-93553216D01*
X125665147Y-93405646D01*
X125790646Y-93280147D01*
X125938216Y-93181544D01*
X126102188Y-93113624D01*
X126251488Y-93083927D01*
X126276258Y-93079000D01*
X126453742Y-93079000D01*
X126478512Y-93083927D01*
G37*
G36*
X129653512Y-93083927D02*
G01*
X129802812Y-93113624D01*
X129966784Y-93181544D01*
X130114354Y-93280147D01*
X130239853Y-93405646D01*
X130338456Y-93553216D01*
X130406376Y-93717188D01*
X130441000Y-93891259D01*
X130441000Y-94068741D01*
X130406376Y-94242812D01*
X130338456Y-94406784D01*
X130239853Y-94554354D01*
X130114354Y-94679853D01*
X129966784Y-94778456D01*
X129802812Y-94846376D01*
X129653512Y-94876073D01*
X129628742Y-94881000D01*
X129451258Y-94881000D01*
X129426488Y-94876073D01*
X129277188Y-94846376D01*
X129113216Y-94778456D01*
X128965646Y-94679853D01*
X128840147Y-94554354D01*
X128741544Y-94406784D01*
X128673624Y-94242812D01*
X128639000Y-94068741D01*
X128639000Y-93891259D01*
X128673624Y-93717188D01*
X128741544Y-93553216D01*
X128840147Y-93405646D01*
X128965646Y-93280147D01*
X129113216Y-93181544D01*
X129277188Y-93113624D01*
X129426488Y-93083927D01*
X129451258Y-93079000D01*
X129628742Y-93079000D01*
X129653512Y-93083927D01*
G37*
G36*
X132193512Y-93083927D02*
G01*
X132342812Y-93113624D01*
X132506784Y-93181544D01*
X132654354Y-93280147D01*
X132779853Y-93405646D01*
X132878456Y-93553216D01*
X132946376Y-93717188D01*
X132981000Y-93891259D01*
X132981000Y-94068741D01*
X132946376Y-94242812D01*
X132878456Y-94406784D01*
X132779853Y-94554354D01*
X132654354Y-94679853D01*
X132506784Y-94778456D01*
X132342812Y-94846376D01*
X132193512Y-94876073D01*
X132168742Y-94881000D01*
X131991258Y-94881000D01*
X131966488Y-94876073D01*
X131817188Y-94846376D01*
X131653216Y-94778456D01*
X131505646Y-94679853D01*
X131380147Y-94554354D01*
X131281544Y-94406784D01*
X131213624Y-94242812D01*
X131179000Y-94068741D01*
X131179000Y-93891259D01*
X131213624Y-93717188D01*
X131281544Y-93553216D01*
X131380147Y-93405646D01*
X131505646Y-93280147D01*
X131653216Y-93181544D01*
X131817188Y-93113624D01*
X131966488Y-93083927D01*
X131991258Y-93079000D01*
X132168742Y-93079000D01*
X132193512Y-93083927D01*
G37*
G36*
X154418512Y-93083927D02*
G01*
X154567812Y-93113624D01*
X154731784Y-93181544D01*
X154879354Y-93280147D01*
X155004853Y-93405646D01*
X155103456Y-93553216D01*
X155171376Y-93717188D01*
X155206000Y-93891259D01*
X155206000Y-94068741D01*
X155171376Y-94242812D01*
X155103456Y-94406784D01*
X155004853Y-94554354D01*
X154879354Y-94679853D01*
X154731784Y-94778456D01*
X154567812Y-94846376D01*
X154418512Y-94876073D01*
X154393742Y-94881000D01*
X154216258Y-94881000D01*
X154191488Y-94876073D01*
X154042188Y-94846376D01*
X153878216Y-94778456D01*
X153730646Y-94679853D01*
X153605147Y-94554354D01*
X153506544Y-94406784D01*
X153438624Y-94242812D01*
X153404000Y-94068741D01*
X153404000Y-93891259D01*
X153438624Y-93717188D01*
X153506544Y-93553216D01*
X153605147Y-93405646D01*
X153730646Y-93280147D01*
X153878216Y-93181544D01*
X154042188Y-93113624D01*
X154191488Y-93083927D01*
X154216258Y-93079000D01*
X154393742Y-93079000D01*
X154418512Y-93083927D01*
G37*
G36*
X151243512Y-93083927D02*
G01*
X151392812Y-93113624D01*
X151556784Y-93181544D01*
X151704354Y-93280147D01*
X151829853Y-93405646D01*
X151928456Y-93553216D01*
X151996376Y-93717188D01*
X152031000Y-93891259D01*
X152031000Y-94068741D01*
X151996376Y-94242812D01*
X151928456Y-94406784D01*
X151829853Y-94554354D01*
X151704354Y-94679853D01*
X151556784Y-94778456D01*
X151392812Y-94846376D01*
X151243512Y-94876073D01*
X151218742Y-94881000D01*
X151041258Y-94881000D01*
X151016488Y-94876073D01*
X150867188Y-94846376D01*
X150703216Y-94778456D01*
X150555646Y-94679853D01*
X150430147Y-94554354D01*
X150331544Y-94406784D01*
X150263624Y-94242812D01*
X150229000Y-94068741D01*
X150229000Y-93891259D01*
X150263624Y-93717188D01*
X150331544Y-93553216D01*
X150430147Y-93405646D01*
X150555646Y-93280147D01*
X150703216Y-93181544D01*
X150867188Y-93113624D01*
X151016488Y-93083927D01*
X151041258Y-93079000D01*
X151218742Y-93079000D01*
X151243512Y-93083927D01*
G37*
G36*
X148703512Y-93083927D02*
G01*
X148852812Y-93113624D01*
X149016784Y-93181544D01*
X149164354Y-93280147D01*
X149289853Y-93405646D01*
X149388456Y-93553216D01*
X149456376Y-93717188D01*
X149491000Y-93891259D01*
X149491000Y-94068741D01*
X149456376Y-94242812D01*
X149388456Y-94406784D01*
X149289853Y-94554354D01*
X149164354Y-94679853D01*
X149016784Y-94778456D01*
X148852812Y-94846376D01*
X148703512Y-94876073D01*
X148678742Y-94881000D01*
X148501258Y-94881000D01*
X148476488Y-94876073D01*
X148327188Y-94846376D01*
X148163216Y-94778456D01*
X148015646Y-94679853D01*
X147890147Y-94554354D01*
X147791544Y-94406784D01*
X147723624Y-94242812D01*
X147689000Y-94068741D01*
X147689000Y-93891259D01*
X147723624Y-93717188D01*
X147791544Y-93553216D01*
X147890147Y-93405646D01*
X148015646Y-93280147D01*
X148163216Y-93181544D01*
X148327188Y-93113624D01*
X148476488Y-93083927D01*
X148501258Y-93079000D01*
X148678742Y-93079000D01*
X148703512Y-93083927D01*
G37*
G36*
X148703512Y-90543927D02*
G01*
X148852812Y-90573624D01*
X149016784Y-90641544D01*
X149164354Y-90740147D01*
X149289853Y-90865646D01*
X149388456Y-91013216D01*
X149456376Y-91177188D01*
X149491000Y-91351259D01*
X149491000Y-91528741D01*
X149456376Y-91702812D01*
X149388456Y-91866784D01*
X149289853Y-92014354D01*
X149164354Y-92139853D01*
X149016784Y-92238456D01*
X148852812Y-92306376D01*
X148703512Y-92336073D01*
X148678742Y-92341000D01*
X148501258Y-92341000D01*
X148476488Y-92336073D01*
X148327188Y-92306376D01*
X148163216Y-92238456D01*
X148015646Y-92139853D01*
X147890147Y-92014354D01*
X147791544Y-91866784D01*
X147723624Y-91702812D01*
X147689000Y-91528741D01*
X147689000Y-91351259D01*
X147723624Y-91177188D01*
X147791544Y-91013216D01*
X147890147Y-90865646D01*
X148015646Y-90740147D01*
X148163216Y-90641544D01*
X148327188Y-90573624D01*
X148476488Y-90543927D01*
X148501258Y-90539000D01*
X148678742Y-90539000D01*
X148703512Y-90543927D01*
G37*
G36*
X129653512Y-90543927D02*
G01*
X129802812Y-90573624D01*
X129966784Y-90641544D01*
X130114354Y-90740147D01*
X130239853Y-90865646D01*
X130338456Y-91013216D01*
X130406376Y-91177188D01*
X130441000Y-91351259D01*
X130441000Y-91528741D01*
X130406376Y-91702812D01*
X130338456Y-91866784D01*
X130239853Y-92014354D01*
X130114354Y-92139853D01*
X129966784Y-92238456D01*
X129802812Y-92306376D01*
X129653512Y-92336073D01*
X129628742Y-92341000D01*
X129451258Y-92341000D01*
X129426488Y-92336073D01*
X129277188Y-92306376D01*
X129113216Y-92238456D01*
X128965646Y-92139853D01*
X128840147Y-92014354D01*
X128741544Y-91866784D01*
X128673624Y-91702812D01*
X128639000Y-91528741D01*
X128639000Y-91351259D01*
X128673624Y-91177188D01*
X128741544Y-91013216D01*
X128840147Y-90865646D01*
X128965646Y-90740147D01*
X129113216Y-90641544D01*
X129277188Y-90573624D01*
X129426488Y-90543927D01*
X129451258Y-90539000D01*
X129628742Y-90539000D01*
X129653512Y-90543927D01*
G37*
G36*
X126478512Y-90543927D02*
G01*
X126627812Y-90573624D01*
X126791784Y-90641544D01*
X126939354Y-90740147D01*
X127064853Y-90865646D01*
X127163456Y-91013216D01*
X127231376Y-91177188D01*
X127266000Y-91351259D01*
X127266000Y-91528741D01*
X127231376Y-91702812D01*
X127163456Y-91866784D01*
X127064853Y-92014354D01*
X126939354Y-92139853D01*
X126791784Y-92238456D01*
X126627812Y-92306376D01*
X126478512Y-92336073D01*
X126453742Y-92341000D01*
X126276258Y-92341000D01*
X126251488Y-92336073D01*
X126102188Y-92306376D01*
X125938216Y-92238456D01*
X125790646Y-92139853D01*
X125665147Y-92014354D01*
X125566544Y-91866784D01*
X125498624Y-91702812D01*
X125464000Y-91528741D01*
X125464000Y-91351259D01*
X125498624Y-91177188D01*
X125566544Y-91013216D01*
X125665147Y-90865646D01*
X125790646Y-90740147D01*
X125938216Y-90641544D01*
X126102188Y-90573624D01*
X126251488Y-90543927D01*
X126276258Y-90539000D01*
X126453742Y-90539000D01*
X126478512Y-90543927D01*
G37*
G36*
X151243512Y-90543927D02*
G01*
X151392812Y-90573624D01*
X151556784Y-90641544D01*
X151704354Y-90740147D01*
X151829853Y-90865646D01*
X151928456Y-91013216D01*
X151996376Y-91177188D01*
X152031000Y-91351259D01*
X152031000Y-91528741D01*
X151996376Y-91702812D01*
X151928456Y-91866784D01*
X151829853Y-92014354D01*
X151704354Y-92139853D01*
X151556784Y-92238456D01*
X151392812Y-92306376D01*
X151243512Y-92336073D01*
X151218742Y-92341000D01*
X151041258Y-92341000D01*
X151016488Y-92336073D01*
X150867188Y-92306376D01*
X150703216Y-92238456D01*
X150555646Y-92139853D01*
X150430147Y-92014354D01*
X150331544Y-91866784D01*
X150263624Y-91702812D01*
X150229000Y-91528741D01*
X150229000Y-91351259D01*
X150263624Y-91177188D01*
X150331544Y-91013216D01*
X150430147Y-90865646D01*
X150555646Y-90740147D01*
X150703216Y-90641544D01*
X150867188Y-90573624D01*
X151016488Y-90543927D01*
X151041258Y-90539000D01*
X151218742Y-90539000D01*
X151243512Y-90543927D01*
G37*
G36*
X132193512Y-90543927D02*
G01*
X132342812Y-90573624D01*
X132506784Y-90641544D01*
X132654354Y-90740147D01*
X132779853Y-90865646D01*
X132878456Y-91013216D01*
X132946376Y-91177188D01*
X132981000Y-91351259D01*
X132981000Y-91528741D01*
X132946376Y-91702812D01*
X132878456Y-91866784D01*
X132779853Y-92014354D01*
X132654354Y-92139853D01*
X132506784Y-92238456D01*
X132342812Y-92306376D01*
X132193512Y-92336073D01*
X132168742Y-92341000D01*
X131991258Y-92341000D01*
X131966488Y-92336073D01*
X131817188Y-92306376D01*
X131653216Y-92238456D01*
X131505646Y-92139853D01*
X131380147Y-92014354D01*
X131281544Y-91866784D01*
X131213624Y-91702812D01*
X131179000Y-91528741D01*
X131179000Y-91351259D01*
X131213624Y-91177188D01*
X131281544Y-91013216D01*
X131380147Y-90865646D01*
X131505646Y-90740147D01*
X131653216Y-90641544D01*
X131817188Y-90573624D01*
X131966488Y-90543927D01*
X131991258Y-90539000D01*
X132168742Y-90539000D01*
X132193512Y-90543927D01*
G37*
G36*
X154418512Y-90543927D02*
G01*
X154567812Y-90573624D01*
X154731784Y-90641544D01*
X154879354Y-90740147D01*
X155004853Y-90865646D01*
X155103456Y-91013216D01*
X155171376Y-91177188D01*
X155206000Y-91351259D01*
X155206000Y-91528741D01*
X155171376Y-91702812D01*
X155103456Y-91866784D01*
X155004853Y-92014354D01*
X154879354Y-92139853D01*
X154731784Y-92238456D01*
X154567812Y-92306376D01*
X154418512Y-92336073D01*
X154393742Y-92341000D01*
X154216258Y-92341000D01*
X154191488Y-92336073D01*
X154042188Y-92306376D01*
X153878216Y-92238456D01*
X153730646Y-92139853D01*
X153605147Y-92014354D01*
X153506544Y-91866784D01*
X153438624Y-91702812D01*
X153404000Y-91528741D01*
X153404000Y-91351259D01*
X153438624Y-91177188D01*
X153506544Y-91013216D01*
X153605147Y-90865646D01*
X153730646Y-90740147D01*
X153878216Y-90641544D01*
X154042188Y-90573624D01*
X154191488Y-90543927D01*
X154216258Y-90539000D01*
X154393742Y-90539000D01*
X154418512Y-90543927D01*
G37*
G36*
X129653512Y-88003927D02*
G01*
X129802812Y-88033624D01*
X129966784Y-88101544D01*
X130114354Y-88200147D01*
X130239853Y-88325646D01*
X130338456Y-88473216D01*
X130406376Y-88637188D01*
X130441000Y-88811259D01*
X130441000Y-88988741D01*
X130406376Y-89162812D01*
X130338456Y-89326784D01*
X130239853Y-89474354D01*
X130114354Y-89599853D01*
X129966784Y-89698456D01*
X129802812Y-89766376D01*
X129653512Y-89796073D01*
X129628742Y-89801000D01*
X129451258Y-89801000D01*
X129426488Y-89796073D01*
X129277188Y-89766376D01*
X129113216Y-89698456D01*
X128965646Y-89599853D01*
X128840147Y-89474354D01*
X128741544Y-89326784D01*
X128673624Y-89162812D01*
X128639000Y-88988741D01*
X128639000Y-88811259D01*
X128673624Y-88637188D01*
X128741544Y-88473216D01*
X128840147Y-88325646D01*
X128965646Y-88200147D01*
X129113216Y-88101544D01*
X129277188Y-88033624D01*
X129426488Y-88003927D01*
X129451258Y-87999000D01*
X129628742Y-87999000D01*
X129653512Y-88003927D01*
G37*
G36*
X154418512Y-88003927D02*
G01*
X154567812Y-88033624D01*
X154731784Y-88101544D01*
X154879354Y-88200147D01*
X155004853Y-88325646D01*
X155103456Y-88473216D01*
X155171376Y-88637188D01*
X155206000Y-88811259D01*
X155206000Y-88988741D01*
X155171376Y-89162812D01*
X155103456Y-89326784D01*
X155004853Y-89474354D01*
X154879354Y-89599853D01*
X154731784Y-89698456D01*
X154567812Y-89766376D01*
X154418512Y-89796073D01*
X154393742Y-89801000D01*
X154216258Y-89801000D01*
X154191488Y-89796073D01*
X154042188Y-89766376D01*
X153878216Y-89698456D01*
X153730646Y-89599853D01*
X153605147Y-89474354D01*
X153506544Y-89326784D01*
X153438624Y-89162812D01*
X153404000Y-88988741D01*
X153404000Y-88811259D01*
X153438624Y-88637188D01*
X153506544Y-88473216D01*
X153605147Y-88325646D01*
X153730646Y-88200147D01*
X153878216Y-88101544D01*
X154042188Y-88033624D01*
X154191488Y-88003927D01*
X154216258Y-87999000D01*
X154393742Y-87999000D01*
X154418512Y-88003927D01*
G37*
G36*
X151243512Y-88003927D02*
G01*
X151392812Y-88033624D01*
X151556784Y-88101544D01*
X151704354Y-88200147D01*
X151829853Y-88325646D01*
X151928456Y-88473216D01*
X151996376Y-88637188D01*
X152031000Y-88811259D01*
X152031000Y-88988741D01*
X151996376Y-89162812D01*
X151928456Y-89326784D01*
X151829853Y-89474354D01*
X151704354Y-89599853D01*
X151556784Y-89698456D01*
X151392812Y-89766376D01*
X151243512Y-89796073D01*
X151218742Y-89801000D01*
X151041258Y-89801000D01*
X151016488Y-89796073D01*
X150867188Y-89766376D01*
X150703216Y-89698456D01*
X150555646Y-89599853D01*
X150430147Y-89474354D01*
X150331544Y-89326784D01*
X150263624Y-89162812D01*
X150229000Y-88988741D01*
X150229000Y-88811259D01*
X150263624Y-88637188D01*
X150331544Y-88473216D01*
X150430147Y-88325646D01*
X150555646Y-88200147D01*
X150703216Y-88101544D01*
X150867188Y-88033624D01*
X151016488Y-88003927D01*
X151041258Y-87999000D01*
X151218742Y-87999000D01*
X151243512Y-88003927D01*
G37*
G36*
X148703512Y-88003927D02*
G01*
X148852812Y-88033624D01*
X149016784Y-88101544D01*
X149164354Y-88200147D01*
X149289853Y-88325646D01*
X149388456Y-88473216D01*
X149456376Y-88637188D01*
X149491000Y-88811259D01*
X149491000Y-88988741D01*
X149456376Y-89162812D01*
X149388456Y-89326784D01*
X149289853Y-89474354D01*
X149164354Y-89599853D01*
X149016784Y-89698456D01*
X148852812Y-89766376D01*
X148703512Y-89796073D01*
X148678742Y-89801000D01*
X148501258Y-89801000D01*
X148476488Y-89796073D01*
X148327188Y-89766376D01*
X148163216Y-89698456D01*
X148015646Y-89599853D01*
X147890147Y-89474354D01*
X147791544Y-89326784D01*
X147723624Y-89162812D01*
X147689000Y-88988741D01*
X147689000Y-88811259D01*
X147723624Y-88637188D01*
X147791544Y-88473216D01*
X147890147Y-88325646D01*
X148015646Y-88200147D01*
X148163216Y-88101544D01*
X148327188Y-88033624D01*
X148476488Y-88003927D01*
X148501258Y-87999000D01*
X148678742Y-87999000D01*
X148703512Y-88003927D01*
G37*
G36*
X132193512Y-88003927D02*
G01*
X132342812Y-88033624D01*
X132506784Y-88101544D01*
X132654354Y-88200147D01*
X132779853Y-88325646D01*
X132878456Y-88473216D01*
X132946376Y-88637188D01*
X132981000Y-88811259D01*
X132981000Y-88988741D01*
X132946376Y-89162812D01*
X132878456Y-89326784D01*
X132779853Y-89474354D01*
X132654354Y-89599853D01*
X132506784Y-89698456D01*
X132342812Y-89766376D01*
X132193512Y-89796073D01*
X132168742Y-89801000D01*
X131991258Y-89801000D01*
X131966488Y-89796073D01*
X131817188Y-89766376D01*
X131653216Y-89698456D01*
X131505646Y-89599853D01*
X131380147Y-89474354D01*
X131281544Y-89326784D01*
X131213624Y-89162812D01*
X131179000Y-88988741D01*
X131179000Y-88811259D01*
X131213624Y-88637188D01*
X131281544Y-88473216D01*
X131380147Y-88325646D01*
X131505646Y-88200147D01*
X131653216Y-88101544D01*
X131817188Y-88033624D01*
X131966488Y-88003927D01*
X131991258Y-87999000D01*
X132168742Y-87999000D01*
X132193512Y-88003927D01*
G37*
G36*
X126478512Y-88003927D02*
G01*
X126627812Y-88033624D01*
X126791784Y-88101544D01*
X126939354Y-88200147D01*
X127064853Y-88325646D01*
X127163456Y-88473216D01*
X127231376Y-88637188D01*
X127266000Y-88811259D01*
X127266000Y-88988741D01*
X127231376Y-89162812D01*
X127163456Y-89326784D01*
X127064853Y-89474354D01*
X126939354Y-89599853D01*
X126791784Y-89698456D01*
X126627812Y-89766376D01*
X126478512Y-89796073D01*
X126453742Y-89801000D01*
X126276258Y-89801000D01*
X126251488Y-89796073D01*
X126102188Y-89766376D01*
X125938216Y-89698456D01*
X125790646Y-89599853D01*
X125665147Y-89474354D01*
X125566544Y-89326784D01*
X125498624Y-89162812D01*
X125464000Y-88988741D01*
X125464000Y-88811259D01*
X125498624Y-88637188D01*
X125566544Y-88473216D01*
X125665147Y-88325646D01*
X125790646Y-88200147D01*
X125938216Y-88101544D01*
X126102188Y-88033624D01*
X126251488Y-88003927D01*
X126276258Y-87999000D01*
X126453742Y-87999000D01*
X126478512Y-88003927D01*
G37*
G36*
X132193512Y-85463927D02*
G01*
X132342812Y-85493624D01*
X132506784Y-85561544D01*
X132654354Y-85660147D01*
X132779853Y-85785646D01*
X132878456Y-85933216D01*
X132946376Y-86097188D01*
X132981000Y-86271259D01*
X132981000Y-86448741D01*
X132946376Y-86622812D01*
X132878456Y-86786784D01*
X132779853Y-86934354D01*
X132654354Y-87059853D01*
X132506784Y-87158456D01*
X132342812Y-87226376D01*
X132193512Y-87256073D01*
X132168742Y-87261000D01*
X131991258Y-87261000D01*
X131966488Y-87256073D01*
X131817188Y-87226376D01*
X131653216Y-87158456D01*
X131505646Y-87059853D01*
X131380147Y-86934354D01*
X131281544Y-86786784D01*
X131213624Y-86622812D01*
X131179000Y-86448741D01*
X131179000Y-86271259D01*
X131213624Y-86097188D01*
X131281544Y-85933216D01*
X131380147Y-85785646D01*
X131505646Y-85660147D01*
X131653216Y-85561544D01*
X131817188Y-85493624D01*
X131966488Y-85463927D01*
X131991258Y-85459000D01*
X132168742Y-85459000D01*
X132193512Y-85463927D01*
G37*
G36*
X129653512Y-85463927D02*
G01*
X129802812Y-85493624D01*
X129966784Y-85561544D01*
X130114354Y-85660147D01*
X130239853Y-85785646D01*
X130338456Y-85933216D01*
X130406376Y-86097188D01*
X130441000Y-86271259D01*
X130441000Y-86448741D01*
X130406376Y-86622812D01*
X130338456Y-86786784D01*
X130239853Y-86934354D01*
X130114354Y-87059853D01*
X129966784Y-87158456D01*
X129802812Y-87226376D01*
X129653512Y-87256073D01*
X129628742Y-87261000D01*
X129451258Y-87261000D01*
X129426488Y-87256073D01*
X129277188Y-87226376D01*
X129113216Y-87158456D01*
X128965646Y-87059853D01*
X128840147Y-86934354D01*
X128741544Y-86786784D01*
X128673624Y-86622812D01*
X128639000Y-86448741D01*
X128639000Y-86271259D01*
X128673624Y-86097188D01*
X128741544Y-85933216D01*
X128840147Y-85785646D01*
X128965646Y-85660147D01*
X129113216Y-85561544D01*
X129277188Y-85493624D01*
X129426488Y-85463927D01*
X129451258Y-85459000D01*
X129628742Y-85459000D01*
X129653512Y-85463927D01*
G37*
G36*
X126478512Y-85463927D02*
G01*
X126627812Y-85493624D01*
X126791784Y-85561544D01*
X126939354Y-85660147D01*
X127064853Y-85785646D01*
X127163456Y-85933216D01*
X127231376Y-86097188D01*
X127266000Y-86271259D01*
X127266000Y-86448741D01*
X127231376Y-86622812D01*
X127163456Y-86786784D01*
X127064853Y-86934354D01*
X126939354Y-87059853D01*
X126791784Y-87158456D01*
X126627812Y-87226376D01*
X126478512Y-87256073D01*
X126453742Y-87261000D01*
X126276258Y-87261000D01*
X126251488Y-87256073D01*
X126102188Y-87226376D01*
X125938216Y-87158456D01*
X125790646Y-87059853D01*
X125665147Y-86934354D01*
X125566544Y-86786784D01*
X125498624Y-86622812D01*
X125464000Y-86448741D01*
X125464000Y-86271259D01*
X125498624Y-86097188D01*
X125566544Y-85933216D01*
X125665147Y-85785646D01*
X125790646Y-85660147D01*
X125938216Y-85561544D01*
X126102188Y-85493624D01*
X126251488Y-85463927D01*
X126276258Y-85459000D01*
X126453742Y-85459000D01*
X126478512Y-85463927D01*
G37*
G36*
X148703512Y-85463927D02*
G01*
X148852812Y-85493624D01*
X149016784Y-85561544D01*
X149164354Y-85660147D01*
X149289853Y-85785646D01*
X149388456Y-85933216D01*
X149456376Y-86097188D01*
X149491000Y-86271259D01*
X149491000Y-86448741D01*
X149456376Y-86622812D01*
X149388456Y-86786784D01*
X149289853Y-86934354D01*
X149164354Y-87059853D01*
X149016784Y-87158456D01*
X148852812Y-87226376D01*
X148703512Y-87256073D01*
X148678742Y-87261000D01*
X148501258Y-87261000D01*
X148476488Y-87256073D01*
X148327188Y-87226376D01*
X148163216Y-87158456D01*
X148015646Y-87059853D01*
X147890147Y-86934354D01*
X147791544Y-86786784D01*
X147723624Y-86622812D01*
X147689000Y-86448741D01*
X147689000Y-86271259D01*
X147723624Y-86097188D01*
X147791544Y-85933216D01*
X147890147Y-85785646D01*
X148015646Y-85660147D01*
X148163216Y-85561544D01*
X148327188Y-85493624D01*
X148476488Y-85463927D01*
X148501258Y-85459000D01*
X148678742Y-85459000D01*
X148703512Y-85463927D01*
G37*
G36*
X151243512Y-85463927D02*
G01*
X151392812Y-85493624D01*
X151556784Y-85561544D01*
X151704354Y-85660147D01*
X151829853Y-85785646D01*
X151928456Y-85933216D01*
X151996376Y-86097188D01*
X152031000Y-86271259D01*
X152031000Y-86448741D01*
X151996376Y-86622812D01*
X151928456Y-86786784D01*
X151829853Y-86934354D01*
X151704354Y-87059853D01*
X151556784Y-87158456D01*
X151392812Y-87226376D01*
X151243512Y-87256073D01*
X151218742Y-87261000D01*
X151041258Y-87261000D01*
X151016488Y-87256073D01*
X150867188Y-87226376D01*
X150703216Y-87158456D01*
X150555646Y-87059853D01*
X150430147Y-86934354D01*
X150331544Y-86786784D01*
X150263624Y-86622812D01*
X150229000Y-86448741D01*
X150229000Y-86271259D01*
X150263624Y-86097188D01*
X150331544Y-85933216D01*
X150430147Y-85785646D01*
X150555646Y-85660147D01*
X150703216Y-85561544D01*
X150867188Y-85493624D01*
X151016488Y-85463927D01*
X151041258Y-85459000D01*
X151218742Y-85459000D01*
X151243512Y-85463927D01*
G37*
G36*
X154418512Y-85463927D02*
G01*
X154567812Y-85493624D01*
X154731784Y-85561544D01*
X154879354Y-85660147D01*
X155004853Y-85785646D01*
X155103456Y-85933216D01*
X155171376Y-86097188D01*
X155206000Y-86271259D01*
X155206000Y-86448741D01*
X155171376Y-86622812D01*
X155103456Y-86786784D01*
X155004853Y-86934354D01*
X154879354Y-87059853D01*
X154731784Y-87158456D01*
X154567812Y-87226376D01*
X154418512Y-87256073D01*
X154393742Y-87261000D01*
X154216258Y-87261000D01*
X154191488Y-87256073D01*
X154042188Y-87226376D01*
X153878216Y-87158456D01*
X153730646Y-87059853D01*
X153605147Y-86934354D01*
X153506544Y-86786784D01*
X153438624Y-86622812D01*
X153404000Y-86448741D01*
X153404000Y-86271259D01*
X153438624Y-86097188D01*
X153506544Y-85933216D01*
X153605147Y-85785646D01*
X153730646Y-85660147D01*
X153878216Y-85561544D01*
X154042188Y-85493624D01*
X154191488Y-85463927D01*
X154216258Y-85459000D01*
X154393742Y-85459000D01*
X154418512Y-85463927D01*
G37*
G36*
X154418512Y-82923927D02*
G01*
X154567812Y-82953624D01*
X154731784Y-83021544D01*
X154879354Y-83120147D01*
X155004853Y-83245646D01*
X155103456Y-83393216D01*
X155171376Y-83557188D01*
X155206000Y-83731259D01*
X155206000Y-83908741D01*
X155171376Y-84082812D01*
X155103456Y-84246784D01*
X155004853Y-84394354D01*
X154879354Y-84519853D01*
X154731784Y-84618456D01*
X154567812Y-84686376D01*
X154418512Y-84716073D01*
X154393742Y-84721000D01*
X154216258Y-84721000D01*
X154191488Y-84716073D01*
X154042188Y-84686376D01*
X153878216Y-84618456D01*
X153730646Y-84519853D01*
X153605147Y-84394354D01*
X153506544Y-84246784D01*
X153438624Y-84082812D01*
X153404000Y-83908741D01*
X153404000Y-83731259D01*
X153438624Y-83557188D01*
X153506544Y-83393216D01*
X153605147Y-83245646D01*
X153730646Y-83120147D01*
X153878216Y-83021544D01*
X154042188Y-82953624D01*
X154191488Y-82923927D01*
X154216258Y-82919000D01*
X154393742Y-82919000D01*
X154418512Y-82923927D01*
G37*
G36*
X132193512Y-82923927D02*
G01*
X132342812Y-82953624D01*
X132506784Y-83021544D01*
X132654354Y-83120147D01*
X132779853Y-83245646D01*
X132878456Y-83393216D01*
X132946376Y-83557188D01*
X132981000Y-83731259D01*
X132981000Y-83908741D01*
X132946376Y-84082812D01*
X132878456Y-84246784D01*
X132779853Y-84394354D01*
X132654354Y-84519853D01*
X132506784Y-84618456D01*
X132342812Y-84686376D01*
X132193512Y-84716073D01*
X132168742Y-84721000D01*
X131991258Y-84721000D01*
X131966488Y-84716073D01*
X131817188Y-84686376D01*
X131653216Y-84618456D01*
X131505646Y-84519853D01*
X131380147Y-84394354D01*
X131281544Y-84246784D01*
X131213624Y-84082812D01*
X131179000Y-83908741D01*
X131179000Y-83731259D01*
X131213624Y-83557188D01*
X131281544Y-83393216D01*
X131380147Y-83245646D01*
X131505646Y-83120147D01*
X131653216Y-83021544D01*
X131817188Y-82953624D01*
X131966488Y-82923927D01*
X131991258Y-82919000D01*
X132168742Y-82919000D01*
X132193512Y-82923927D01*
G37*
G36*
X126478512Y-82923927D02*
G01*
X126627812Y-82953624D01*
X126791784Y-83021544D01*
X126939354Y-83120147D01*
X127064853Y-83245646D01*
X127163456Y-83393216D01*
X127231376Y-83557188D01*
X127266000Y-83731259D01*
X127266000Y-83908741D01*
X127231376Y-84082812D01*
X127163456Y-84246784D01*
X127064853Y-84394354D01*
X126939354Y-84519853D01*
X126791784Y-84618456D01*
X126627812Y-84686376D01*
X126478512Y-84716073D01*
X126453742Y-84721000D01*
X126276258Y-84721000D01*
X126251488Y-84716073D01*
X126102188Y-84686376D01*
X125938216Y-84618456D01*
X125790646Y-84519853D01*
X125665147Y-84394354D01*
X125566544Y-84246784D01*
X125498624Y-84082812D01*
X125464000Y-83908741D01*
X125464000Y-83731259D01*
X125498624Y-83557188D01*
X125566544Y-83393216D01*
X125665147Y-83245646D01*
X125790646Y-83120147D01*
X125938216Y-83021544D01*
X126102188Y-82953624D01*
X126251488Y-82923927D01*
X126276258Y-82919000D01*
X126453742Y-82919000D01*
X126478512Y-82923927D01*
G37*
G36*
X129653512Y-82923927D02*
G01*
X129802812Y-82953624D01*
X129966784Y-83021544D01*
X130114354Y-83120147D01*
X130239853Y-83245646D01*
X130338456Y-83393216D01*
X130406376Y-83557188D01*
X130441000Y-83731259D01*
X130441000Y-83908741D01*
X130406376Y-84082812D01*
X130338456Y-84246784D01*
X130239853Y-84394354D01*
X130114354Y-84519853D01*
X129966784Y-84618456D01*
X129802812Y-84686376D01*
X129653512Y-84716073D01*
X129628742Y-84721000D01*
X129451258Y-84721000D01*
X129426488Y-84716073D01*
X129277188Y-84686376D01*
X129113216Y-84618456D01*
X128965646Y-84519853D01*
X128840147Y-84394354D01*
X128741544Y-84246784D01*
X128673624Y-84082812D01*
X128639000Y-83908741D01*
X128639000Y-83731259D01*
X128673624Y-83557188D01*
X128741544Y-83393216D01*
X128840147Y-83245646D01*
X128965646Y-83120147D01*
X129113216Y-83021544D01*
X129277188Y-82953624D01*
X129426488Y-82923927D01*
X129451258Y-82919000D01*
X129628742Y-82919000D01*
X129653512Y-82923927D01*
G37*
G36*
X149491000Y-84721000D02*
G01*
X147689000Y-84721000D01*
X147689000Y-82919000D01*
X149491000Y-82919000D01*
X149491000Y-84721000D01*
G37*
G36*
X151243512Y-82923927D02*
G01*
X151392812Y-82953624D01*
X151556784Y-83021544D01*
X151704354Y-83120147D01*
X151829853Y-83245646D01*
X151928456Y-83393216D01*
X151996376Y-83557188D01*
X152031000Y-83731259D01*
X152031000Y-83908741D01*
X151996376Y-84082812D01*
X151928456Y-84246784D01*
X151829853Y-84394354D01*
X151704354Y-84519853D01*
X151556784Y-84618456D01*
X151392812Y-84686376D01*
X151243512Y-84716073D01*
X151218742Y-84721000D01*
X151041258Y-84721000D01*
X151016488Y-84716073D01*
X150867188Y-84686376D01*
X150703216Y-84618456D01*
X150555646Y-84519853D01*
X150430147Y-84394354D01*
X150331544Y-84246784D01*
X150263624Y-84082812D01*
X150229000Y-83908741D01*
X150229000Y-83731259D01*
X150263624Y-83557188D01*
X150331544Y-83393216D01*
X150430147Y-83245646D01*
X150555646Y-83120147D01*
X150703216Y-83021544D01*
X150867188Y-82953624D01*
X151016488Y-82923927D01*
X151041258Y-82919000D01*
X151218742Y-82919000D01*
X151243512Y-82923927D01*
G37*
G36*
X154418512Y-80383927D02*
G01*
X154567812Y-80413624D01*
X154731784Y-80481544D01*
X154879354Y-80580147D01*
X155004853Y-80705646D01*
X155103456Y-80853216D01*
X155171376Y-81017188D01*
X155206000Y-81191259D01*
X155206000Y-81368741D01*
X155171376Y-81542812D01*
X155103456Y-81706784D01*
X155004853Y-81854354D01*
X154879354Y-81979853D01*
X154731784Y-82078456D01*
X154567812Y-82146376D01*
X154418512Y-82176073D01*
X154393742Y-82181000D01*
X154216258Y-82181000D01*
X154191488Y-82176073D01*
X154042188Y-82146376D01*
X153878216Y-82078456D01*
X153730646Y-81979853D01*
X153605147Y-81854354D01*
X153506544Y-81706784D01*
X153438624Y-81542812D01*
X153404000Y-81368741D01*
X153404000Y-81191259D01*
X153438624Y-81017188D01*
X153506544Y-80853216D01*
X153605147Y-80705646D01*
X153730646Y-80580147D01*
X153878216Y-80481544D01*
X154042188Y-80413624D01*
X154191488Y-80383927D01*
X154216258Y-80379000D01*
X154393742Y-80379000D01*
X154418512Y-80383927D01*
G37*
G36*
X126478512Y-80383927D02*
G01*
X126627812Y-80413624D01*
X126791784Y-80481544D01*
X126939354Y-80580147D01*
X127064853Y-80705646D01*
X127163456Y-80853216D01*
X127231376Y-81017188D01*
X127266000Y-81191259D01*
X127266000Y-81368741D01*
X127231376Y-81542812D01*
X127163456Y-81706784D01*
X127064853Y-81854354D01*
X126939354Y-81979853D01*
X126791784Y-82078456D01*
X126627812Y-82146376D01*
X126478512Y-82176073D01*
X126453742Y-82181000D01*
X126276258Y-82181000D01*
X126251488Y-82176073D01*
X126102188Y-82146376D01*
X125938216Y-82078456D01*
X125790646Y-81979853D01*
X125665147Y-81854354D01*
X125566544Y-81706784D01*
X125498624Y-81542812D01*
X125464000Y-81368741D01*
X125464000Y-81191259D01*
X125498624Y-81017188D01*
X125566544Y-80853216D01*
X125665147Y-80705646D01*
X125790646Y-80580147D01*
X125938216Y-80481544D01*
X126102188Y-80413624D01*
X126251488Y-80383927D01*
X126276258Y-80379000D01*
X126453742Y-80379000D01*
X126478512Y-80383927D01*
G37*
G36*
X132193512Y-80383927D02*
G01*
X132342812Y-80413624D01*
X132506784Y-80481544D01*
X132654354Y-80580147D01*
X132779853Y-80705646D01*
X132878456Y-80853216D01*
X132946376Y-81017188D01*
X132981000Y-81191259D01*
X132981000Y-81368741D01*
X132946376Y-81542812D01*
X132878456Y-81706784D01*
X132779853Y-81854354D01*
X132654354Y-81979853D01*
X132506784Y-82078456D01*
X132342812Y-82146376D01*
X132193512Y-82176073D01*
X132168742Y-82181000D01*
X131991258Y-82181000D01*
X131966488Y-82176073D01*
X131817188Y-82146376D01*
X131653216Y-82078456D01*
X131505646Y-81979853D01*
X131380147Y-81854354D01*
X131281544Y-81706784D01*
X131213624Y-81542812D01*
X131179000Y-81368741D01*
X131179000Y-81191259D01*
X131213624Y-81017188D01*
X131281544Y-80853216D01*
X131380147Y-80705646D01*
X131505646Y-80580147D01*
X131653216Y-80481544D01*
X131817188Y-80413624D01*
X131966488Y-80383927D01*
X131991258Y-80379000D01*
X132168742Y-80379000D01*
X132193512Y-80383927D01*
G37*
G36*
X130441000Y-82181000D02*
G01*
X128639000Y-82181000D01*
X128639000Y-80379000D01*
X130441000Y-80379000D01*
X130441000Y-82181000D01*
G37*
G36*
X154418512Y-77843927D02*
G01*
X154567812Y-77873624D01*
X154731784Y-77941544D01*
X154879354Y-78040147D01*
X155004853Y-78165646D01*
X155103456Y-78313216D01*
X155171376Y-78477188D01*
X155206000Y-78651259D01*
X155206000Y-78828741D01*
X155171376Y-79002812D01*
X155103456Y-79166784D01*
X155004853Y-79314354D01*
X154879354Y-79439853D01*
X154731784Y-79538456D01*
X154567812Y-79606376D01*
X154418512Y-79636073D01*
X154393742Y-79641000D01*
X154216258Y-79641000D01*
X154191488Y-79636073D01*
X154042188Y-79606376D01*
X153878216Y-79538456D01*
X153730646Y-79439853D01*
X153605147Y-79314354D01*
X153506544Y-79166784D01*
X153438624Y-79002812D01*
X153404000Y-78828741D01*
X153404000Y-78651259D01*
X153438624Y-78477188D01*
X153506544Y-78313216D01*
X153605147Y-78165646D01*
X153730646Y-78040147D01*
X153878216Y-77941544D01*
X154042188Y-77873624D01*
X154191488Y-77843927D01*
X154216258Y-77839000D01*
X154393742Y-77839000D01*
X154418512Y-77843927D01*
G37*
G36*
X126478512Y-77843927D02*
G01*
X126627812Y-77873624D01*
X126791784Y-77941544D01*
X126939354Y-78040147D01*
X127064853Y-78165646D01*
X127163456Y-78313216D01*
X127231376Y-78477188D01*
X127266000Y-78651259D01*
X127266000Y-78828741D01*
X127231376Y-79002812D01*
X127163456Y-79166784D01*
X127064853Y-79314354D01*
X126939354Y-79439853D01*
X126791784Y-79538456D01*
X126627812Y-79606376D01*
X126478512Y-79636073D01*
X126453742Y-79641000D01*
X126276258Y-79641000D01*
X126251488Y-79636073D01*
X126102188Y-79606376D01*
X125938216Y-79538456D01*
X125790646Y-79439853D01*
X125665147Y-79314354D01*
X125566544Y-79166784D01*
X125498624Y-79002812D01*
X125464000Y-78828741D01*
X125464000Y-78651259D01*
X125498624Y-78477188D01*
X125566544Y-78313216D01*
X125665147Y-78165646D01*
X125790646Y-78040147D01*
X125938216Y-77941544D01*
X126102188Y-77873624D01*
X126251488Y-77843927D01*
X126276258Y-77839000D01*
X126453742Y-77839000D01*
X126478512Y-77843927D01*
G37*
G36*
X126478512Y-75303927D02*
G01*
X126627812Y-75333624D01*
X126791784Y-75401544D01*
X126939354Y-75500147D01*
X127064853Y-75625646D01*
X127163456Y-75773216D01*
X127231376Y-75937188D01*
X127266000Y-76111259D01*
X127266000Y-76288741D01*
X127231376Y-76462812D01*
X127163456Y-76626784D01*
X127064853Y-76774354D01*
X126939354Y-76899853D01*
X126791784Y-76998456D01*
X126627812Y-77066376D01*
X126478512Y-77096073D01*
X126453742Y-77101000D01*
X126276258Y-77101000D01*
X126251488Y-77096073D01*
X126102188Y-77066376D01*
X125938216Y-76998456D01*
X125790646Y-76899853D01*
X125665147Y-76774354D01*
X125566544Y-76626784D01*
X125498624Y-76462812D01*
X125464000Y-76288741D01*
X125464000Y-76111259D01*
X125498624Y-75937188D01*
X125566544Y-75773216D01*
X125665147Y-75625646D01*
X125790646Y-75500147D01*
X125938216Y-75401544D01*
X126102188Y-75333624D01*
X126251488Y-75303927D01*
X126276258Y-75299000D01*
X126453742Y-75299000D01*
X126478512Y-75303927D01*
G37*
G36*
X154418512Y-75303927D02*
G01*
X154567812Y-75333624D01*
X154731784Y-75401544D01*
X154879354Y-75500147D01*
X155004853Y-75625646D01*
X155103456Y-75773216D01*
X155171376Y-75937188D01*
X155206000Y-76111259D01*
X155206000Y-76288741D01*
X155171376Y-76462812D01*
X155103456Y-76626784D01*
X155004853Y-76774354D01*
X154879354Y-76899853D01*
X154731784Y-76998456D01*
X154567812Y-77066376D01*
X154418512Y-77096073D01*
X154393742Y-77101000D01*
X154216258Y-77101000D01*
X154191488Y-77096073D01*
X154042188Y-77066376D01*
X153878216Y-76998456D01*
X153730646Y-76899853D01*
X153605147Y-76774354D01*
X153506544Y-76626784D01*
X153438624Y-76462812D01*
X153404000Y-76288741D01*
X153404000Y-76111259D01*
X153438624Y-75937188D01*
X153506544Y-75773216D01*
X153605147Y-75625646D01*
X153730646Y-75500147D01*
X153878216Y-75401544D01*
X154042188Y-75333624D01*
X154191488Y-75303927D01*
X154216258Y-75299000D01*
X154393742Y-75299000D01*
X154418512Y-75303927D01*
G37*
G36*
X126478512Y-72763927D02*
G01*
X126627812Y-72793624D01*
X126791784Y-72861544D01*
X126939354Y-72960147D01*
X127064853Y-73085646D01*
X127163456Y-73233216D01*
X127231376Y-73397188D01*
X127266000Y-73571259D01*
X127266000Y-73748741D01*
X127231376Y-73922812D01*
X127163456Y-74086784D01*
X127064853Y-74234354D01*
X126939354Y-74359853D01*
X126791784Y-74458456D01*
X126627812Y-74526376D01*
X126478512Y-74556073D01*
X126453742Y-74561000D01*
X126276258Y-74561000D01*
X126251488Y-74556073D01*
X126102188Y-74526376D01*
X125938216Y-74458456D01*
X125790646Y-74359853D01*
X125665147Y-74234354D01*
X125566544Y-74086784D01*
X125498624Y-73922812D01*
X125464000Y-73748741D01*
X125464000Y-73571259D01*
X125498624Y-73397188D01*
X125566544Y-73233216D01*
X125665147Y-73085646D01*
X125790646Y-72960147D01*
X125938216Y-72861544D01*
X126102188Y-72793624D01*
X126251488Y-72763927D01*
X126276258Y-72759000D01*
X126453742Y-72759000D01*
X126478512Y-72763927D01*
G37*
G36*
X154418512Y-72763927D02*
G01*
X154567812Y-72793624D01*
X154731784Y-72861544D01*
X154879354Y-72960147D01*
X155004853Y-73085646D01*
X155103456Y-73233216D01*
X155171376Y-73397188D01*
X155206000Y-73571259D01*
X155206000Y-73748741D01*
X155171376Y-73922812D01*
X155103456Y-74086784D01*
X155004853Y-74234354D01*
X154879354Y-74359853D01*
X154731784Y-74458456D01*
X154567812Y-74526376D01*
X154418512Y-74556073D01*
X154393742Y-74561000D01*
X154216258Y-74561000D01*
X154191488Y-74556073D01*
X154042188Y-74526376D01*
X153878216Y-74458456D01*
X153730646Y-74359853D01*
X153605147Y-74234354D01*
X153506544Y-74086784D01*
X153438624Y-73922812D01*
X153404000Y-73748741D01*
X153404000Y-73571259D01*
X153438624Y-73397188D01*
X153506544Y-73233216D01*
X153605147Y-73085646D01*
X153730646Y-72960147D01*
X153878216Y-72861544D01*
X154042188Y-72793624D01*
X154191488Y-72763927D01*
X154216258Y-72759000D01*
X154393742Y-72759000D01*
X154418512Y-72763927D01*
G37*
M02*
